<svg height="150" viewBox="0 0 1150 150" width="1150" xmlns="http://www.w3.org/2000/svg"><path d="m1057.040039 132h28.511963v-29.519997c0-16.128006 5.904053-22.608001 17.280029-22.608001 5.76001 0 8.351929.863998 11.231934 1.872001v-25.199997c-2.880005-.720001-5.615967-1.152008-8.351929-1.152008-10.368042 0-16.416015 4.751999-21.024048 13.824005h-.287964v-11.951995h-27.359985zm-4.752075-30.959999c0-29.232002-12.815918-45.648003-42.479981-45.648003-23.760009 0-39.455993 17.712006-39.455993 39.456002 0 24.912002 18 39.024009 41.903991 39.024009 16.848023 0 32.687989-7.488006 38.447998-23.616012h-26.640014c-2.303955 3.600006-7.343994 5.328003-11.951965 5.328003-9.072022 0-13.823975-5.904-14.544007-14.543999zm-54.575989-14.832001c1.296021-8.064003 6.048035-12.528007 14.688049-12.528007 7.343995 0 12.527955 5.616005 12.527955 12.528007zm-60.047974 8.351998c0 8.784004-2.304016 18.576004-12.528015 18.576004s-12.528015-9.792-12.528015-18.576004c0-8.783997 2.304016-18.432 12.528015-18.432s12.528015 9.648003 12.528015 18.432zm27.504029-65.375992h-28.512024v36.287994h-.288025c-4.463989-6.335998-11.807983-10.080002-20.447998-10.080002-25.055969 0-31.823975 21.168-31.823975 38.880005 0 18.863999 10.223999 39.600006 31.391968 39.600006 13.824036 0 18.432007-5.472015 21.888001-10.080009h.288024v8.208h27.504029zm-82.512024 71.855995c0-29.232002-12.815979-45.648003-42.479981-45.648003-23.760009 0-39.456054 17.712006-39.456054 39.456002 0 24.912002 18 39.024009 41.904052 39.024009 16.847962 0 32.687989-7.488006 38.447998-23.616012h-26.640014c-2.304016 3.600006-7.343994 5.328003-11.952027 5.328003-9.07196 0-13.823974-5.904-14.544006-14.543999zm-54.575989-14.832001c1.29596-8.064003 6.047974-12.528007 14.687988-12.528007 7.343995 0 12.528016 5.616005 12.528016 12.528007zm-247.968017 45.792h28.512023v-39.456001c0-11.951996 6.335999-14.400002 11.375977-14.400002 8.35199 0 9.359985 6.048004 9.359985 14.688004v39.167999h28.512024v-51.264c0-17.135994-12.23999-25.344002-25.632019-25.344002-12.096008 0-18.575989 4.175995-23.328003 9.936005h-.287964v-36.143997h-28.512023zm-5.471985-46.367996c-1.87201-20.736008-18.288025-30.240006-38.015992-30.240006-22.463989 0-40.464019 15.695999-40.464019 39.312004 0 23.615998 18.00003 39.168007 40.464019 39.168007 20.159974 0 36.143982-11.376007 38.880005-31.680008h-27.216003c-.57605 5.904-4.895996 10.944001-11.088013 10.944001-10.944031 0-12.528015-9.216004-12.528015-18.432 0-9.071998 1.583984-18.576004 12.528015-18.576004 3.023987 0 5.328003.863999 7.200012 2.447998 1.871949 1.584008 2.880005 3.888001 3.167969 7.056008zm-81.648011-6.624001c-.720001-19.152-20.160003-23.616005-36.287994-23.616005-14.976013 0-35.279999 4.895996-35.279999 23.760002 0 12.816002 8.783997 19.872002 30.527985 23.472001 13.248016 2.304 15.696014 3.599998 15.696014 7.919998 0 4.319999-5.904022 5.760002-9.64801 5.760002-3.455994 0-6.048004-.720001-7.631989-2.160004-2.160003-1.871994-3.312011-4.175995-3.456024-6.624h-27.215973c.431977 19.296005 19.727997 26.352012 37.29599 26.352012 18.143982 0 38.015992-5.616012 38.015992-26.352012 0-12.239998-8.208008-17.855996-17.855988-20.879998-9.503998-3.024002-20.447998-3.888-25.056-5.760002-1.584015-.719993-3.312011-1.727997-3.312011-3.888 0-4.751992 4.608001-5.760002 8.640014-5.760002 2.447998 0 4.608002.720001 6.335999 2.160003 1.871979 1.296006 3.167999 3.168 3.311981 5.616005zm-190.223999 52.991997h28.511994v-21.599998l5.040008-5.472001 15.264008 27.071999h34.271973l-30.815979-46.512001 26.639984-28.223991h-32.255982l-18.144012 21.59999v-49.679992h-28.511994zm-6.048004-46.367996c-1.872009-20.736008-18.287994-30.240006-38.016022-30.240006-22.463974 0-40.463974 15.695999-40.463974 39.312004 0 23.615998 18 39.168007 40.463974 39.168007 20.160035 0 36.144013-11.376007 38.880036-31.680008h-27.216004c-.576019 5.904-4.896026 10.944001-11.088012 10.944001-10.944 0-12.528-9.216004-12.528-18.432 0-9.071998 1.584-18.576004 12.528-18.576004 3.023987 0 5.328003.863999 7.200012 2.447998 1.871979 1.584008 2.879974 3.888001 3.167999 7.056008zm-84.384002-56.447998h-28.511994v20.015991h28.511994zm-28.511994 102.815994h28.511994v-74.735992h-28.511994zm-132.192005 0h28.511997v-40.463997c0-7.920006 2.304001-13.392006 9.648003-13.392006 8.639999 0 9.36 6.336006 9.36 13.392006v40.463997h28.512001v-40.463997c0-7.920006 2.304001-13.392006 9.647995-13.392006 8.64 0 9.360001 6.336006 9.360001 13.392006v40.463997h28.512009v-51.264c0-12.096001-6.480011-25.344002-25.632004-25.344002-18.576004 0-24.335999 10.944001-25.487999 11.664002-3.456001-7.488007-12.096001-11.664002-20.160004-11.664002-10.367996 0-18.720001 3.168-24.479995 11.807999h-.288002v-9.935989h-27.504002zm706.320026-76.608002c28.079956 0 40.751953 18.576004 40.751953 39.168 0 20.736-12.671997 39.312011-40.751953 39.312011-28.080017 0-40.752014-18.576011-40.752014-39.312011 0-4.849228.702698-9.586655 2.143921-13.996018-1.850342-.418602-4.087952-.691978-7.327942-.691978-11.375976 0-17.279968 6.479995-17.279968 22.608001v29.519997h-28.512024v-74.735992h27.359985v11.951995h.288025c4.607971-9.072006 10.656006-13.824005 21.023987-13.824005 2.736023 0 5.471985.432007 8.35199 1.152008v15.660881c6.304443-9.976081 17.668823-16.812889 34.70404-16.812889zm0 57.744004c10.94397 0 12.239991-10.655999 12.239991-18.576004 0-7.919999-1.296021-18.432-12.239991-18.432-10.94403 0-12.240051 10.512001-12.240051 18.432 0 7.920005 1.296021 18.576004 12.240051 18.576004z" fill-rule="evenodd"/></svg>