<?xml version="1.0" encoding="UTF-8"?>
<!-- Generated by Pixelmator Pro 3.7 -->
<svg width="1150" height="150" viewBox="0 0 1150 150" xmlns="http://www.w3.org/2000/svg">
    <path id="mick-schroeder" fill="#000000" fill-rule="evenodd" stroke="none" d="M 1057.040039 132 L 1085.552002 132 L 1085.552002 102.480003 C 1085.552002 86.351997 1091.456055 79.872002 1102.832031 79.872002 C 1108.592041 79.872002 1111.18396 80.736 1114.063965 81.744003 L 1114.063965 56.544006 C 1111.18396 55.824005 1108.447998 55.391998 1105.712036 55.391998 C 1095.343994 55.391998 1089.296021 60.143997 1084.687988 69.216003 L 1084.400024 69.216003 L 1084.400024 57.264008 L 1057.040039 57.264008 Z M 1052.287964 101.040001 C 1052.287964 71.807999 1039.472046 55.391998 1009.807983 55.391998 C 986.047974 55.391998 970.35199 73.104004 970.35199 94.848 C 970.35199 119.760002 988.35199 133.872009 1012.255981 133.872009 C 1029.104004 133.872009 1044.94397 126.384003 1050.703979 110.255997 L 1024.063965 110.255997 C 1021.76001 113.856003 1016.719971 115.584 1012.112 115.584 C 1003.039978 115.584 998.288025 109.68 997.567993 101.040001 Z M 997.711975 86.208 C 999.007996 78.143997 1003.76001 73.679993 1012.400024 73.679993 C 1019.744019 73.679993 1024.927979 79.295998 1024.927979 86.208 Z M 937.664001 94.559998 C 937.664001 103.344002 935.359985 113.136002 925.135986 113.136002 C 914.911987 113.136002 912.607971 103.344002 912.607971 94.559998 C 912.607971 85.776001 914.911987 76.127998 925.135986 76.127998 C 935.359985 76.127998 937.664001 85.776001 937.664001 94.559998 Z M 965.16803 29.184006 L 936.656006 29.184006 L 936.656006 65.472 L 936.367981 65.472 C 931.903992 59.136002 924.559998 55.391998 915.919983 55.391998 C 890.864014 55.391998 884.096008 76.559998 884.096008 94.272003 C 884.096008 113.136002 894.320007 133.872009 915.487976 133.872009 C 929.312012 133.872009 933.919983 128.399994 937.375977 123.792 L 937.664001 123.792 L 937.664001 132 L 965.16803 132 Z M 882.656006 101.040001 C 882.656006 71.807999 869.840027 55.391998 840.176025 55.391998 C 816.416016 55.391998 800.719971 73.104004 800.719971 94.848 C 800.719971 119.760002 818.719971 133.872009 842.624023 133.872009 C 859.471985 133.872009 875.312012 126.384003 881.072021 110.255997 L 854.432007 110.255997 C 852.127991 113.856003 847.088013 115.584 842.47998 115.584 C 833.40802 115.584 828.656006 109.68 827.935974 101.040001 Z M 828.080017 86.208 C 829.375977 78.143997 834.127991 73.679993 842.768005 73.679993 C 850.112 73.679993 855.296021 79.295998 855.296021 86.208 Z M 580.112 132 L 608.624023 132 L 608.624023 92.543999 C 608.624023 80.592003 614.960022 78.143997 620 78.143997 C 628.35199 78.143997 629.359985 84.192001 629.359985 92.832001 L 629.359985 132 L 657.872009 132 L 657.872009 80.736 C 657.872009 63.600006 645.632019 55.391998 632.23999 55.391998 C 620.143982 55.391998 613.664001 59.567993 608.911987 65.328003 L 608.624023 65.328003 L 608.624023 29.184006 L 580.112 29.184006 Z M 574.640015 85.632004 C 572.768005 64.895996 556.35199 55.391998 536.624023 55.391998 C 514.160034 55.391998 496.160004 71.087997 496.160004 94.704002 C 496.160004 118.32 514.160034 133.872009 536.624023 133.872009 C 556.783997 133.872009 572.768005 122.496002 575.504028 102.192001 L 548.288025 102.192001 C 547.711975 108.096001 543.392029 113.136002 537.200012 113.136002 C 526.255981 113.136002 524.671997 103.919998 524.671997 94.704002 C 524.671997 85.632004 526.255981 76.127998 537.200012 76.127998 C 540.223999 76.127998 542.528015 76.991997 544.400024 78.575996 C 546.271973 80.160004 547.280029 82.463997 547.567993 85.632004 Z M 492.992004 79.008003 C 492.272003 59.856003 472.832001 55.391998 456.70401 55.391998 C 441.727997 55.391998 421.424011 60.287994 421.424011 79.152 C 421.424011 91.968002 430.208008 99.024002 451.951996 102.624001 C 465.200012 104.928001 467.64801 106.223999 467.64801 110.543999 C 467.64801 114.863998 461.743988 116.304001 458 116.304001 C 454.544006 116.304001 451.951996 115.584 450.368011 114.143997 C 448.208008 112.272003 447.056 109.968002 446.911987 107.519997 L 419.696014 107.519997 C 420.127991 126.816002 439.424011 133.872009 456.992004 133.872009 C 475.135986 133.872009 495.007996 128.255997 495.007996 107.519997 C 495.007996 95.279999 486.799988 89.664001 477.152008 86.639999 C 467.64801 83.615997 456.70401 82.751999 452.096008 80.879997 C 450.511993 80.160004 448.783997 79.152 448.783997 76.991997 C 448.783997 72.240005 453.391998 71.231995 457.424011 71.231995 C 459.872009 71.231995 462.032013 71.951996 463.76001 73.391998 C 465.631989 74.688004 466.928009 76.559998 467.071991 79.008003 Z M 302.768005 132 L 331.279999 132 L 331.279999 110.400002 L 336.320007 104.928001 L 351.584015 132 L 385.855988 132 L 355.040009 85.487999 L 381.679993 57.264008 L 349.424011 57.264008 L 331.279999 78.863998 L 331.279999 29.184006 L 302.768005 29.184006 Z M 296.720001 85.632004 C 294.847992 64.895996 278.432007 55.391998 258.703979 55.391998 C 236.240005 55.391998 218.240005 71.087997 218.240005 94.704002 C 218.240005 118.32 236.240005 133.872009 258.703979 133.872009 C 278.864014 133.872009 294.847992 122.496002 297.584015 102.192001 L 270.368011 102.192001 C 269.791992 108.096001 265.471985 113.136002 259.279999 113.136002 C 248.335999 113.136002 246.751999 103.919998 246.751999 94.704002 C 246.751999 85.632004 248.335999 76.127998 259.279999 76.127998 C 262.303986 76.127998 264.608002 76.991997 266.480011 78.575996 C 268.35199 80.160004 269.359985 82.463997 269.64801 85.632004 Z M 212.335999 29.184006 L 183.824005 29.184006 L 183.824005 49.199997 L 212.335999 49.199997 Z M 183.824005 132 L 212.335999 132 L 212.335999 57.264008 L 183.824005 57.264008 Z M 51.632 132 L 80.143997 132 L 80.143997 91.536003 C 80.143997 83.615997 82.447998 78.143997 89.792 78.143997 C 98.431999 78.143997 99.152 84.480003 99.152 91.536003 L 99.152 132 L 127.664001 132 L 127.664001 91.536003 C 127.664001 83.615997 129.968002 78.143997 137.311996 78.143997 C 145.951996 78.143997 146.671997 84.480003 146.671997 91.536003 L 146.671997 132 L 175.184006 132 L 175.184006 80.736 C 175.184006 68.639999 168.703995 55.391998 149.552002 55.391998 C 130.975998 55.391998 125.216003 66.335999 124.064003 67.056 C 120.608002 59.567993 111.968002 55.391998 103.903999 55.391998 C 93.536003 55.391998 85.183998 58.559998 79.424004 67.199997 L 79.136002 67.199997 L 79.136002 57.264008 L 51.632 57.264008 Z M 757.952026 55.391998 C 786.031982 55.391998 798.703979 73.968002 798.703979 94.559998 C 798.703979 115.295998 786.031982 133.872009 757.952026 133.872009 C 729.872009 133.872009 717.200012 115.295998 717.200012 94.559998 C 717.200012 89.71077 717.90271 84.973343 719.343933 80.56398 C 717.493591 80.145378 715.255981 79.872002 712.015991 79.872002 C 700.640015 79.872002 694.736023 86.351997 694.736023 102.480003 L 694.736023 132 L 666.223999 132 L 666.223999 57.264008 L 693.583984 57.264008 L 693.583984 69.216003 L 693.872009 69.216003 C 698.47998 60.143997 704.528015 55.391998 714.895996 55.391998 C 717.632019 55.391998 720.367981 55.824005 723.247986 56.544006 L 723.247986 72.204887 C 729.552429 62.228806 740.916809 55.391998 757.952026 55.391998 Z M 757.952026 113.136002 C 768.895996 113.136002 770.192017 102.480003 770.192017 94.559998 C 770.192017 86.639999 768.895996 76.127998 757.952026 76.127998 C 747.007996 76.127998 745.711975 86.639999 745.711975 94.559998 C 745.711975 102.480003 747.007996 113.136002 757.952026 113.136002 Z"/>
</svg>
